<?xml version="1.0" encoding="UTF-8"?>
<!-- Generator: Adobe Illustrator 22.0.1, SVG Export Plug-In . SVG Version: 6.00 Build 0)  -->
<svg version="1.1" id="Layer_1" xmlns="http://www.w3.org/2000/svg" xmlns:xlink="http://www.w3.org/1999/xlink" x="0px" y="0px" viewBox="0 0 167.6 167.6" style="enable-background:new 0 0 167.6 167.6;" xml:space="preserve">
<style type="text/css">
	.st0{fill:#000000;}
</style>
<g>
	<path class="st0" d="M83.8,0C37.6,0,0,37.6,0,83.8s37.6,83.8,83.8,83.8s83.8-37.6,83.8-83.8S130,0,83.8,0z M83.8,1.8   c41.7,0,76.2,31.3,81.3,71.7h-12.4c-5-33.5-34-59.4-68.9-59.4c-34.9,0-63.9,25.8-68.9,59.4H2.5C7.6,33.1,42.1,1.8,83.8,1.8z    M151.4,83.8c0,25.3-14,47.4-34.7,59v-15.5l17-13.8v-8.6c1,0,5-0.3,8.5-2.6c4-2.6,5.7-6.8,5.8-7l0.5-1.4l-1.5,0   c-0.2,0.1-4.8,0-8.8,2.6c-1.9,1.2-3.3,2.9-4.2,4.2c0.1-1.7-0.1-4.2-1.1-6.6c-1.8-4.4-5.5-6.9-5.7-7l-1.2-0.8l-0.3,1.4   c0,0.2-1,4.7,0.8,9.1c1.3,3.3,3.7,5.5,5,6.4v9l-14.8,12v-8.1c1.3-0.3,4.8-1.2,7.7-3.9c3.5-3.3,4.4-7.7,4.5-7.9l0.3-1.4l-1.4,0.2   c-0.2,0-4.8,0.8-8.2,4.1c-1.2,1.2-2.1,2.5-2.8,3.7V93.1l0,0l0-0.4V92c1.5-0.5,4.5-1.9,6.9-4.6c3.1-3.6,3.6-8.1,3.6-8.3l0.1-1.5   l-1.4,0.4c-0.2,0.1-4.6,1.4-7.7,5c-1.3,1.5-2.1,3.2-2.6,4.6c-0.5-1.3-1.3-2.8-2.5-4.2c-3.1-3.6-7.5-4.9-7.7-5L104,78l0.1,1.5   c0,0.2,0.5,4.7,3.6,8.3c2.3,2.7,5.4,4.1,6.8,4.6l0,0.2l0,0V105l-9.8-6.3c0.5-1.4,1.3-4.7,0.5-8.2c-1-4.6-4.3-7.9-4.4-8l-1-1   l-0.6,1.3c-0.1,0.2-1.8,4.4-0.8,9c0.4,1.7,1,3.2,1.8,4.4c-1.2-0.5-2.6-1-4.2-1.2c-4.7-0.6-8.9,1.5-9,1.6l-1.3,0.7l1.1,1   c0.1,0.1,3.5,3.1,8.3,3.7c0.6,0.1,1.1,0.1,1.6,0.1c3.3,0,6-1.1,7-1.5l0.1,0.1l0.2,0.2l0-0.1l10.6,6.8v24.1l-11.3-10.3   c1.2-1.2,3.3-3.7,4.2-7c1.3-4.6-0.2-8.9-0.3-9l-0.5-1.4l-1.1,1c-0.1,0.1-3.6,3.2-4.9,7.8c-0.5,1.9-0.6,3.8-0.4,5.3   c-1-1-2.4-2-4-2.7c-4.3-2-8.9-1.3-9.1-1.2l-1.4,0.2l0.7,1.3c0.1,0.2,2.4,4.1,6.8,6c2.5,1.1,5,1.4,6.7,1.4c0.6,0,1.2,0,1.6-0.1   l13.1,11.9v9.4c-9.2,4.7-19.7,7.4-30.7,7.4c-0.7,0-1.4,0-2-0.1v-11h13.3l-3.8,3.8l1.5,1.5l7.3-7.3H62v2.1h17.7v10.9   c-11.6-0.7-22.5-4.4-31.8-10.2c3.7-20.1,8.6-33.8,19.5-37.8c-0.4,1.2-1.3,4.1-0.9,7.5c0.6,4.2,3.2,7.2,3.3,7.4l1.1,1.2l0.7-1.5   c0.1-0.2,1.7-3.8,1.1-8v0c-0.5-3.7-2.6-6.6-3.1-7.3c1.5-0.4,3.2-0.6,4.9-0.6c0,0,3.5,0.1,5.3,1.5l0,0v28.9H66.4l3.8-3.8l-1.5-1.5   l-7.3,7.3h38.1v-2.1H81.8V75.4h69.1C151.2,78.2,151.4,81,151.4,83.8z M132,101.3c-1.1-1-2.7-2.7-3.6-5c-0.9-2.3-1-4.7-0.9-6.3   c1.1,1,2.7,2.7,3.6,5C132.1,97.3,132.1,99.7,132,101.3z M135.1,102.8c0.8-1.3,2.1-3.2,4.2-4.5c2.1-1.4,4.4-1.9,6-2.1   c-0.8,1.3-2.2,3.2-4.2,4.5C139,102,136.7,102.6,135.1,102.8z M117.6,114.1c0.5-1.4,1.6-3.5,3.4-5.2c1.8-1.7,4-2.6,5.5-3.1   c-0.5,1.4-1.6,3.5-3.4,5.2C121.3,112.7,119,113.7,117.6,114.1z M117,89.7c0.4-1.5,1.2-3.6,2.7-5.5c1.6-1.9,3.7-3.1,5.1-3.7   c-0.4,1.5-1.2,3.7-2.8,5.5C120.5,87.9,118.4,89.1,117,89.7z M114.3,90.2c-1.4-0.6-3.5-1.8-5.1-3.7c-1.6-1.9-2.4-4.1-2.8-5.5   c1.4,0.6,3.5,1.8,5.1,3.7C113.1,86.5,113.9,88.7,114.3,90.2z M100.4,91.5c-0.5-2.4-0.2-4.7,0.2-6.2c1,1.2,2.2,3.3,2.8,5.7   c0.5,2.4,0.2,4.7-0.2,6.1C102.2,95.9,100.9,93.9,100.4,91.5z M101.5,99.3c-1.5,0.5-3.8,1.1-6.3,0.8c-2.4-0.3-4.5-1.4-5.8-2.2   c1.5-0.5,3.8-1,6.3-0.8C98.1,97.4,100.2,98.5,101.5,99.3z M100.2,120.8c-1.5,0-3.9-0.1-6.2-1.2c-2.2-1-3.9-2.7-4.9-3.8   c1.6,0,4,0.2,6.2,1.2v0C97.6,118,99.2,119.7,100.2,120.8z M102.4,119.3c-0.3-1.4-0.5-3.8,0.2-6.1c0.7-2.4,2.1-4.4,3.1-5.6   c0.3,1.5,0.5,3.8-0.2,6.2C104.8,116.2,103.4,118.2,102.4,119.3z M40.1,135.4c-0.1-1.3-0.2-2.7-0.2-4c0-10.3,3.6-20.4,9.4-28.6   l-3.5,37C43.9,138.4,42,136.9,40.1,135.4z M16.7,75.4h63v5.9c-10.4,0.9-20.1,6.3-27.6,14.4L53.6,80l-1.2,0.1   c-0.2,0-16.9,1.2-22.4,19.7c-0.5,0.6-2.6,3.7-2.9,7.7c-0.4,4.4,1.6,8.1,1.7,8.3l0.8,1.4l1-1.2c0.1-0.1,2.7-3.4,3-7.8v0   c0.3-3.6-1-6.8-1.5-7.9c1.6-5.1,4-8.8,6.7-11.5c-0.5,1.5-1,3.8-0.6,6.4c0.6,4.1,3.4,7.1,3.5,7.2l1,1.1l0.6-1.3   c0.1-0.1,1.8-3.7,1.2-7.8v0c-0.6-4.1-3.3-7.1-3.5-7.3l-0.1-0.1c4.2-3.2,8.5-4.3,10.5-4.6l-1.5,16.1c-7.3,9.1-11.9,20.8-11.9,32.9   c0,0.7,0,1.4,0.1,2.1c-13.4-12.4-21.7-30-21.7-49.6C16.2,81,16.4,78.2,16.7,75.4z M68.9,105.4c0.7,1.2,1.4,2.8,1.7,4.7   c0.3,1.9,0,3.6-0.3,4.9c-0.7-1.1-1.4-2.8-1.7-4.7C68.3,108.5,68.5,106.7,68.9,105.4z M49.3,125.5l2.4-25.9c7.3-9,17.4-15.3,28-16.2   v17.7c-2.3-1.1-5.1-1.2-5.3-1.2C60.8,100,53.9,109.5,49.3,125.5z M40.4,89.8c0.7,1.1,1.6,2.8,1.9,4.8c0.3,1.9,0,3.8-0.4,5   c-0.7-1.1-1.6-2.8-1.9-4.8C39.7,92.9,40.1,91,40.4,89.8z M31.4,108c-0.2,2.1-0.9,3.9-1.6,5.1c-0.5-1.3-0.9-3.3-0.8-5.4   c0.2-2.1,0.9-3.9,1.6-5.2C31.1,103.9,31.6,105.9,31.4,108z M17,73.5c0.4-2.3,0.8-4.6,1.4-6.8c7.5-0.8,16.4-9.1,20-12.8   c0.6-0.6,1.5-0.9,2.4-1.2c0.9-0.3,1.8-0.6,2.5-1.3c0.3-0.3,0.7-0.9,1.3-1.8c1.7-2.7,4.9-7.7,8.8-7.7c1.3,0,2.5,1.2,3.7,2.4   c1.3,1.3,2.7,2.7,4.4,2.4c1.5-0.3,2.5-2.4,4.3-6.1c1.1-2.3,2.5-5.1,3.5-5.9c1.8-1.3,4-0.2,5.5,1c0.8,0.7,1.4,1.6,1.5,2.7l0.1,1.2   c0.3,2.8,0.6,6.5,2,8.9c1.3,2.2,2.7,2.6,3.7,2.5c1.3-0.1,2.6-1,3.2-2.3c0.6-1.2,1-2.6,1.4-4.1c1-3.6,2.1-7.3,5.6-8.5   c2.6-0.9,4.5,0.9,6.9,3.6l0.7,0.8c1.1,1.2,2.1,4.4,2.4,5.6l0.1,0.5l0.5,0.2c2,0.7,5.7,2.2,6.6,3.5c2.3,2.9,12.4,6,16.3,3.6   c4-1.2,4.8-0.5,5.9,0.5c1,0.9,2.1,2,4.9,2.2c2.1,0.2,3.5-1.2,4.7-2.3c1-1,1.7-1.5,2.4-1.5c3.3,6.4,5.7,13.4,6.8,20.8H17z M19,64.5   c8.3-27.9,34.2-48.3,64.8-48.3c25.3,0,47.4,14,59,34.6c-1.1,0.3-2,1.2-2.8,2c-1,1-1.9,1.9-3.1,1.8c-2.1-0.2-2.9-0.9-3.7-1.7   c-1.6-1.5-3.2-2.4-8.1-0.9l-0.3,0.1c-2.7,1.7-11.7-0.7-13.7-3.1c-1.4-1.8-5.5-3.4-7.1-3.9c-0.4-1.3-1.4-4.4-2.7-5.9l-0.7-0.8   c-2.1-2.4-5-5.7-9.1-4.2c-4.5,1.6-5.7,6-6.9,9.9c-0.4,1.4-0.8,2.7-1.3,3.8c-0.2,0.5-0.8,1.1-1.4,1.1c-0.6,0-1.3-0.5-1.8-1.5   c-1.2-2-1.5-5.7-1.8-8.1l-0.1-1.3c-0.2-1.6-1-3.1-2.2-4.1c-2.9-2.3-5.8-2.7-8.1-1.1c-1.4,1.1-2.7,3.8-4.1,6.7   c-0.9,1.9-2.2,4.7-2.8,5c-0.6,0.1-1.6-0.9-2.5-1.8c-1.4-1.4-3-3-5.1-3c-5.1,0-8.7,5.6-10.6,8.6c-0.4,0.6-0.8,1.3-1,1.4   c-0.4,0.3-1,0.6-1.8,0.8c-1.1,0.4-2.3,0.8-3.2,1.7C34.3,55.1,25.9,63.2,19,64.5z M83.8,165.8c-45.2,0-82-36.8-82-82   c0-3,0.2-6,0.5-8.9v0.5h12.4c-0.3,2.8-0.5,5.6-0.5,8.4c0,21,9.3,39.8,24,52.5c0,0.1,0,0.1,0,0.2l0.2,0c12.2,10.6,28.1,17,45.5,17   c38.4,0,69.7-31.3,69.7-69.7c0-2.8-0.2-5.6-0.5-8.4h12.4c0.3,2.8,0.4,5.6,0.4,8.4C165.8,129,129,165.8,83.8,165.8z"/>
	<path class="st0" d="M46.3,65.7c0,0.6-0.1,1.1-0.3,1.5c-0.2,0.4-0.5,0.5-1.1,0.5c-0.3,0-0.6-0.1-0.8-0.3c-0.2-0.2-0.4-0.5-0.4-0.8   L42,67c0.2,0.8,0.5,1.4,1,1.8s1.2,0.6,2,0.6c0.5,0,1-0.1,1.3-0.3s0.7-0.4,1-0.7c0.3-0.3,0.4-0.6,0.6-1c0.1-0.4,0.2-0.8,0.2-1.2   v-7.4h-1.8V65.7z"/>
	<path class="st0" d="M59.8,63.6c0.4-0.5,0.6-1.1,0.6-1.9c0-0.6-0.1-1.1-0.3-1.4c-0.2-0.4-0.5-0.7-0.9-0.9c-0.4-0.2-0.8-0.4-1.2-0.5   c-0.5-0.1-0.9-0.1-1.4-0.1H53v10.3h1.8v-4.3h1.3l2.4,4.3h2.2L58,64.5C58.8,64.4,59.4,64.1,59.8,63.6z M57,63.1c-0.3,0-0.5,0-0.8,0   h-1.4v-2.8h1.6c0.2,0,0.5,0,0.7,0c0.2,0,0.5,0.1,0.7,0.2c0.2,0.1,0.4,0.2,0.5,0.4c0.1,0.2,0.2,0.4,0.2,0.7c0,0.3-0.1,0.6-0.2,0.8   c-0.1,0.2-0.3,0.3-0.5,0.4C57.5,63,57.3,63.1,57,63.1z"/>
	<polygon class="st0" points="72.2,66.4 72.2,66.4 67.2,58.8 64.8,58.8 64.8,69.1 66.6,69.1 66.6,61.2 66.6,61.2 71.7,69.1 74,69.1    74,58.8 72.2,58.8  "/>
	<polygon class="st0" points="85.6,58.8 83.8,58.8 83.8,69.1 90,69.1 90,67.4 85.6,67.4  "/>
	<polygon class="st0" points="91.9,60.5 95,60.5 95,69.1 96.9,69.1 96.9,60.5 100,60.5 100,58.8 91.9,58.8  "/>
	<polygon class="st0" points="105.7,64.6 110.4,64.6 110.4,63 105.7,63 105.7,60.5 110.7,60.5 110.7,58.8 103.9,58.8 103.9,69.1    110.9,69.1 110.9,67.4 105.7,67.4  "/>
	<path class="st0" d="M122.2,63.6c0.4-0.5,0.6-1.1,0.6-1.9c0-0.6-0.1-1.1-0.3-1.4c-0.2-0.4-0.5-0.7-0.9-0.9   c-0.4-0.2-0.8-0.4-1.2-0.5c-0.5-0.1-0.9-0.1-1.4-0.1h-3.6v10.3h1.8v-4.3h1.3l2.4,4.3h2.2l-2.7-4.5   C121.2,64.4,121.7,64.1,122.2,63.6z M119.4,63.1c-0.3,0-0.5,0-0.8,0h-1.4v-2.8h1.6c0.2,0,0.5,0,0.7,0c0.2,0,0.5,0.1,0.7,0.2   c0.2,0.1,0.4,0.2,0.5,0.4c0.1,0.2,0.2,0.4,0.2,0.7c0,0.3-0.1,0.6-0.2,0.8c-0.1,0.2-0.3,0.3-0.5,0.4C119.9,63,119.7,63.1,119.4,63.1   z"/>
</g>
</svg>